<?xml version="1.0" standalone="no"?>
<!DOCTYPE svg PUBLIC "-//W3C//DTD SVG 20010904//EN"
 "http://www.w3.org/TR/2001/REC-SVG-20010904/DTD/svg10.dtd">
<svg version="1.0" xmlns="http://www.w3.org/2000/svg"
 width="512.000000pt" height="512.000000pt" viewBox="0 0 512.000000 512.000000"
 preserveAspectRatio="xMidYMid meet">

<g transform="translate(0.000000,512.000000) scale(0.100000,-0.100000)"
fill="#000000" stroke="none">
<path d="M0 2560 l0 -2560 2560 0 2560 0 0 2560 0 2560 -2560 0 -2560 0 0
-2560z m2780 2286 c0 -13 96 -26 196 -26 26 0 46 -5 51 -14 5 -8 32 -15 71
-18 37 -3 67 -10 72 -17 4 -7 29 -16 56 -19 27 -2 52 -11 56 -17 5 -7 30 -16
57 -20 27 -4 52 -12 54 -19 3 -7 24 -16 48 -19 23 -3 46 -13 51 -21 5 -9 22
-16 38 -16 19 0 30 -5 30 -14 0 -8 15 -17 34 -20 19 -4 37 -13 40 -21 3 -9 18
-15 36 -15 20 0 30 -5 30 -15 0 -8 11 -17 25 -21 14 -3 25 -12 25 -20 0 -9 11
-14 31 -14 22 0 32 -5 36 -20 3 -11 14 -20 24 -20 11 0 19 -6 19 -14 0 -8 14
-17 30 -21 17 -4 30 -13 30 -21 0 -8 9 -14 20 -14 11 0 20 -7 20 -15 0 -8 7
-15 15 -15 8 0 19 -9 25 -20 6 -11 17 -20 25 -20 8 0 15 -6 15 -14 0 -8 10
-18 21 -21 12 -4 36 -22 53 -41 17 -19 36 -34 42 -34 7 0 14 -9 17 -20 3 -11
12 -20 21 -20 9 0 16 -6 16 -13 0 -6 15 -26 34 -43 19 -17 37 -41 40 -52 4
-11 13 -23 21 -26 8 -3 15 -12 15 -21 0 -8 6 -15 14 -15 7 0 16 -9 19 -20 3
-11 12 -20 21 -20 9 0 16 -8 16 -20 0 -11 6 -20 14 -20 8 0 17 -14 21 -31 4
-17 13 -33 20 -35 7 -3 15 -14 18 -25 3 -10 12 -19 21 -19 11 0 16 -9 16 -30
0 -19 5 -30 14 -30 8 0 17 -15 20 -35 4 -21 13 -35 21 -35 9 0 15 -10 15 -25
0 -15 6 -25 14 -25 8 0 18 -19 25 -45 6 -25 15 -45 20 -45 5 0 11 -18 15 -39
3 -21 13 -41 21 -45 9 -3 15 -18 15 -35 0 -17 6 -34 14 -38 7 -4 16 -28 19
-52 3 -25 12 -48 21 -53 11 -6 16 -24 16 -58 0 -36 4 -50 14 -50 15 0 26 -43
26 -105 0 -24 5 -45 12 -47 7 -3 14 -50 19 -138 7 -104 12 -136 24 -142 23
-13 22 -319 -1 -343 -12 -12 -17 -44 -22 -140 -3 -88 -8 -125 -17 -125 -8 0
-14 -26 -18 -72 -3 -39 -11 -74 -17 -78 -6 -4 -15 -35 -21 -71 -6 -36 -16 -67
-25 -72 -9 -5 -14 -24 -14 -52 0 -32 -4 -45 -14 -45 -9 0 -17 -15 -21 -40 -4
-25 -12 -40 -21 -40 -9 0 -14 -12 -14 -35 0 -23 -5 -35 -14 -35 -8 0 -17 -15
-20 -35 -4 -21 -13 -35 -21 -35 -10 0 -15 -11 -15 -35 0 -24 -5 -35 -15 -35
-8 0 -17 -14 -21 -35 -3 -20 -12 -35 -20 -35 -8 0 -14 -8 -14 -18 0 -10 -9
-25 -20 -35 -11 -9 -20 -26 -20 -37 0 -12 -7 -20 -16 -20 -9 0 -18 -9 -21 -20
-3 -11 -11 -20 -18 -20 -8 0 -16 -13 -20 -29 -3 -16 -13 -32 -21 -35 -8 -3
-14 -12 -14 -21 0 -8 -7 -15 -15 -15 -8 0 -15 -7 -15 -16 0 -9 -9 -18 -20 -21
-11 -3 -20 -14 -20 -24 0 -11 -7 -19 -15 -19 -8 0 -15 -7 -15 -16 0 -9 -9 -18
-20 -21 -11 -3 -20 -12 -20 -19 0 -8 -7 -14 -15 -14 -8 0 -15 -7 -15 -16 0 -9
-9 -18 -20 -21 -11 -3 -20 -12 -20 -19 0 -8 -7 -14 -15 -14 -8 0 -15 -7 -15
-16 0 -9 -9 -18 -20 -21 -11 -3 -20 -12 -20 -19 0 -8 -9 -14 -20 -14 -11 0
-20 -6 -20 -14 0 -8 -9 -18 -20 -21 -11 -3 -20 -13 -20 -21 0 -8 -7 -14 -15
-14 -9 0 -18 -6 -21 -14 -3 -8 -19 -18 -35 -21 -16 -4 -29 -13 -29 -21 0 -8
-7 -14 -15 -14 -8 0 -19 -9 -25 -20 -6 -12 -21 -20 -35 -20 -14 0 -29 -8 -35
-20 -6 -11 -17 -20 -25 -20 -8 0 -15 -7 -15 -15 0 -10 -10 -15 -31 -15 -22 0
-32 -5 -36 -20 -4 -15 -14 -20 -39 -20 -24 0 -34 -5 -34 -15 0 -10 -10 -15
-31 -15 -22 0 -32 -5 -36 -20 -4 -15 -14 -20 -39 -20 -22 0 -37 -6 -40 -15 -4
-9 -19 -15 -40 -15 -20 0 -42 -8 -53 -19 -10 -10 -39 -20 -67 -24 -26 -3 -50
-10 -52 -16 -2 -6 -14 -11 -27 -11 -43 0 -85 -12 -85 -25 0 -9 -24 -14 -80
-17 -47 -2 -84 -8 -88 -15 -5 -7 -70 -15 -181 -22 -141 -8 -176 -13 -183 -25
-12 -21 -64 -21 -76 0 -7 12 -42 17 -183 25 -109 7 -176 15 -181 22 -4 7 -41
13 -85 15 -52 3 -81 9 -88 19 -6 8 -31 17 -55 20 -25 3 -54 12 -65 19 -11 8
-36 14 -57 14 -26 0 -38 4 -38 14 0 15 -30 26 -72 26 -18 0 -28 5 -28 15 0 11
-11 15 -40 15 -33 0 -40 3 -40 20 0 16 -7 20 -35 20 -24 0 -35 5 -35 15 0 10
-11 15 -35 15 -28 0 -35 4 -35 20 0 16 -7 20 -35 20 -24 0 -35 5 -35 15 0 8
-7 15 -15 15 -8 0 -19 9 -25 20 -6 12 -21 20 -36 20 -17 0 -28 7 -31 20 -3 11
-14 20 -24 20 -11 0 -19 6 -19 13 0 6 -11 18 -25 25 -14 6 -36 18 -50 25 -14
6 -25 17 -25 24 0 6 -9 15 -20 18 -11 3 -20 13 -20 21 0 8 -9 14 -20 14 -11 0
-20 7 -20 15 0 8 -7 15 -15 15 -8 0 -15 7 -15 16 0 9 -9 18 -20 21 -11 3 -20
11 -20 18 0 7 -9 15 -20 18 -11 3 -20 12 -20 21 0 9 -7 16 -15 16 -8 0 -15 6
-15 14 0 7 -9 16 -20 19 -11 3 -20 12 -20 21 0 9 -7 16 -15 16 -8 0 -15 8 -15
19 0 10 -9 21 -20 24 -11 3 -20 12 -20 21 0 9 -7 16 -15 16 -8 0 -15 7 -15 15
0 8 -6 15 -13 15 -7 0 -19 16 -27 35 -8 19 -17 35 -21 35 -4 0 -9 9 -12 20 -3
11 -12 20 -21 20 -9 0 -16 8 -16 20 0 11 -9 28 -20 37 -11 10 -20 25 -20 35 0
10 -6 18 -14 18 -8 0 -17 15 -20 35 -4 21 -13 35 -21 35 -10 0 -15 10 -15 30
0 18 -6 33 -15 36 -8 3 -17 21 -21 40 -3 19 -12 34 -20 34 -9 0 -14 12 -14 35
0 23 -5 35 -14 35 -9 0 -17 15 -21 40 -4 25 -12 40 -21 40 -10 0 -14 13 -14
45 0 29 -5 47 -15 52 -8 5 -18 30 -21 58 -4 28 -12 55 -20 61 -8 6 -16 43 -20
92 -5 54 -11 82 -19 82 -9 0 -14 37 -17 125 -5 96 -10 128 -22 140 -23 24 -24
330 -1 343 12 6 17 38 23 141 5 73 13 136 19 139 5 4 13 38 16 76 3 49 10 72
21 78 11 6 16 23 16 53 0 30 5 47 16 53 11 6 18 27 22 61 3 34 9 51 18 51 9 0
14 11 14 28 0 16 9 39 20 52 11 13 20 37 20 57 0 21 5 33 14 33 8 0 17 15 20
35 4 21 13 35 21 35 9 0 15 10 15 25 0 15 6 25 14 25 8 0 17 15 20 35 4 21 13
35 21 35 10 0 15 11 15 31 0 22 5 32 20 36 11 3 20 12 20 19 0 8 6 17 14 20 8
3 18 19 21 35 4 16 13 29 21 29 8 0 14 9 14 20 0 11 7 20 15 20 9 0 18 7 22
17 3 9 21 31 40 50 18 19 33 39 33 44 0 5 16 24 35 42 19 17 35 37 35 43 0 7
9 14 20 17 11 3 20 12 20 21 0 9 6 16 13 16 6 0 27 16 44 35 18 19 37 35 42
35 6 0 28 18 50 40 22 22 44 40 50 40 6 0 11 7 11 15 0 8 9 15 20 15 11 0 20
6 20 14 0 8 13 17 29 21 16 3 32 13 35 21 3 8 12 14 20 14 7 0 16 9 19 20 4
15 14 20 36 20 20 0 31 5 31 14 0 8 11 17 25 20 14 4 25 13 25 21 0 10 10 15
30 15 18 0 33 6 36 15 3 8 21 17 40 21 19 3 34 12 34 20 0 9 11 14 33 14 20 0
39 8 50 20 11 13 29 20 52 20 23 0 35 5 35 14 0 9 17 16 50 21 28 4 53 13 58
20 4 6 29 15 56 17 27 3 52 12 56 19 5 7 35 14 72 17 39 3 66 10 71 18 5 9 25
14 51 14 100 0 196 13 196 26 0 11 42 14 220 14 178 0 220 -3 220 -14z"/>
<path d="M2526 4085 c-3 -8 -12 -15 -20 -15 -7 0 -16 -9 -19 -20 -3 -11 -12
-20 -21 -20 -9 0 -16 -6 -16 -14 0 -7 -9 -16 -20 -19 -11 -3 -20 -12 -20 -21
0 -9 -7 -16 -15 -16 -9 0 -18 -7 -21 -15 -4 -8 -12 -15 -20 -15 -8 0 -14 -9
-14 -20 0 -15 -7 -20 -29 -20 -20 0 -30 -6 -34 -20 -3 -11 -12 -20 -21 -20 -9
0 -16 -7 -16 -15 0 -8 -9 -15 -20 -15 -12 0 -20 -7 -20 -16 0 -9 -9 -18 -20
-21 -11 -3 -20 -12 -20 -19 0 -8 -6 -14 -12 -14 -16 0 -58 -44 -58 -59 0 -6
-7 -11 -15 -11 -9 0 -18 -7 -21 -15 -4 -8 -12 -15 -19 -15 -7 0 -23 -11 -36
-25 -13 -13 -30 -25 -36 -25 -7 0 -13 -6 -13 -14 0 -7 -9 -16 -20 -19 -11 -3
-20 -12 -20 -21 0 -9 -7 -16 -15 -16 -8 0 -15 -7 -15 -15 0 -8 -9 -15 -20 -15
-13 0 -20 -7 -20 -20 0 -13 -7 -20 -20 -20 -11 0 -20 -7 -20 -15 0 -8 -6 -15
-12 -15 -12 0 -52 -30 -89 -65 -9 -8 -21 -15 -27 -15 -7 0 -12 -6 -12 -14 0
-7 -9 -16 -20 -19 -11 -3 -20 -12 -20 -21 0 -9 -7 -16 -15 -16 -8 0 -15 -7
-15 -15 0 -8 -7 -15 -16 -15 -9 0 -18 -9 -21 -20 -3 -11 -14 -20 -24 -20 -11
0 -19 -6 -19 -14 0 -8 -13 -17 -30 -21 -16 -4 -30 -12 -30 -20 0 -7 -9 -15
-20 -18 -11 -3 -20 -12 -20 -21 0 -9 -8 -16 -20 -16 -11 0 -20 -6 -20 -14 0
-7 -9 -16 -20 -19 -11 -3 -20 -12 -20 -21 0 -9 -7 -16 -15 -16 -8 0 -15 -7
-15 -15 0 -8 -6 -15 -12 -15 -7 0 -24 -12 -37 -25 -13 -14 -29 -25 -37 -25 -8
0 -14 -7 -14 -15 0 -8 -9 -15 -20 -15 -12 0 -20 -7 -20 -16 0 -9 -9 -18 -20
-21 -11 -3 -20 -12 -20 -19 0 -8 -5 -14 -11 -14 -6 0 -24 -12 -40 -27 -36 -35
-38 -73 -4 -104 13 -13 25 -29 25 -35 0 -7 7 -14 15 -18 8 -3 15 -12 15 -21 0
-8 9 -15 20 -15 13 0 20 -7 20 -20 0 -13 7 -20 20 -20 11 0 20 -7 20 -15 0 -8
7 -15 15 -15 8 0 15 7 15 15 0 8 7 15 16 15 9 0 18 9 21 20 3 11 12 20 19 20
8 0 14 7 14 15 0 8 7 15 16 15 9 0 18 9 21 20 3 11 14 20 24 20 11 0 19 7 19
15 0 8 7 15 16 15 9 0 18 9 21 19 3 12 17 23 34 26 16 4 29 13 29 21 0 8 9 14
20 14 13 0 20 7 20 20 0 13 7 20 20 20 11 0 20 7 20 15 0 8 7 15 15 15 8 0 15
9 15 20 0 13 7 20 20 20 11 0 20 7 20 15 0 8 7 15 15 15 9 0 18 7 21 15 3 8
14 17 25 20 10 4 19 13 19 21 0 8 7 14 15 14 8 0 23 8 33 18 10 10 26 21 35
25 9 3 17 13 17 22 0 8 7 15 15 15 8 0 15 6 15 14 0 7 9 16 20 19 11 3 20 12
20 21 0 9 8 16 20 16 11 0 20 7 20 15 0 8 7 15 15 15 8 0 15 9 15 20 0 13 7
20 20 20 11 0 28 9 37 20 10 11 23 20 30 20 7 0 13 7 13 15 0 8 8 15 19 15 10
0 21 9 24 20 3 11 12 20 21 20 9 0 16 7 16 15 0 8 7 15 16 15 9 0 18 9 21 20
3 11 12 20 19 20 8 0 14 7 14 15 0 8 7 15 15 15 9 0 18 7 21 15 4 8 12 15 20
15 8 0 14 5 14 10 0 6 7 10 15 10 8 0 15 7 15 15 0 8 9 15 20 15 12 0 20 7 20
16 0 9 9 18 20 21 11 3 20 12 20 19 0 8 9 14 20 14 11 0 20 6 20 14 0 8 9 18
20 21 11 3 20 13 20 21 0 8 7 14 15 14 8 0 15 6 15 14 0 8 15 17 35 20 46 9
105 -2 105 -20 0 -8 7 -14 15 -14 8 0 15 -6 15 -14 0 -8 9 -18 20 -21 11 -3
20 -13 20 -21 0 -8 9 -14 20 -14 11 0 20 -6 20 -14 0 -7 9 -16 20 -19 11 -3
20 -12 20 -21 0 -9 8 -16 20 -16 11 0 20 -6 20 -14 0 -8 14 -17 30 -21 17 -4
30 -13 30 -22 0 -8 9 -17 20 -20 11 -3 20 -12 20 -19 0 -8 6 -14 14 -14 7 0
16 -9 19 -20 3 -11 12 -20 21 -20 9 0 16 -7 16 -15 0 -8 7 -15 15 -15 8 0 19
-9 25 -20 6 -11 17 -20 25 -20 8 0 15 -7 15 -15 0 -8 6 -15 13 -15 8 0 22 -9
32 -20 10 -11 26 -20 37 -20 11 0 18 -7 18 -20 0 -11 6 -20 14 -20 8 0 16 -7
20 -15 3 -8 12 -15 21 -15 8 0 15 -7 15 -16 0 -9 9 -18 20 -21 11 -3 20 -12
20 -19 0 -8 7 -14 15 -14 8 0 15 -7 15 -15 0 -8 4 -15 9 -15 6 0 22 -11 37
-25 15 -14 33 -25 40 -25 8 0 14 -6 14 -14 0 -8 9 -17 19 -21 11 -3 22 -12 25
-20 3 -8 12 -15 21 -15 8 0 15 -7 15 -15 0 -8 9 -15 20 -15 13 0 20 -7 20 -20
0 -11 7 -20 15 -20 9 0 18 -7 21 -15 4 -8 12 -15 19 -15 7 0 15 -9 18 -20 3
-11 12 -20 21 -20 9 0 16 -6 16 -14 0 -8 13 -17 29 -21 17 -3 31 -14 34 -26 3
-10 12 -19 21 -19 9 0 16 -7 16 -15 0 -8 8 -15 19 -15 10 0 21 -9 24 -20 3
-11 12 -20 21 -20 9 0 16 -7 16 -15 0 -8 6 -15 14 -15 7 0 16 -9 19 -20 3 -11
12 -20 21 -20 9 0 16 -7 16 -15 0 -8 7 -15 15 -15 8 0 15 7 15 15 0 8 9 15 20
15 13 0 20 7 20 20 0 13 7 20 20 20 11 0 20 7 20 15 0 9 7 18 15 21 8 4 15 11
15 18 0 6 12 22 25 35 31 29 33 76 5 93 -11 7 -20 18 -20 25 0 7 -9 13 -20 13
-11 0 -20 6 -20 14 0 7 -9 16 -20 19 -11 3 -20 12 -20 21 0 9 -8 16 -20 16
-11 0 -20 7 -20 15 0 8 -7 15 -15 15 -8 0 -15 5 -15 10 0 6 -6 10 -14 10 -8 0
-16 7 -20 15 -3 8 -12 15 -21 15 -8 0 -15 7 -15 15 0 8 -6 15 -14 15 -7 0 -16
9 -19 20 -3 11 -12 20 -21 20 -9 0 -16 7 -16 15 0 8 -8 15 -19 15 -10 0 -21 9
-24 20 -3 11 -12 20 -21 20 -9 0 -16 7 -16 15 0 8 -6 15 -13 15 -7 0 -20 9
-30 20 -9 11 -25 20 -36 20 -10 0 -21 9 -24 20 -3 11 -12 20 -21 20 -9 0 -16
7 -16 15 0 8 -6 15 -14 15 -7 0 -16 9 -19 20 -3 11 -12 20 -21 20 -9 0 -16 7
-16 15 0 8 -7 15 -15 15 -9 0 -18 7 -21 15 -3 8 -14 17 -25 20 -10 4 -19 12
-19 20 0 7 -13 16 -30 20 -16 4 -30 12 -30 20 0 7 -9 15 -20 18 -11 3 -20 12
-20 21 0 9 -8 16 -20 16 -11 0 -20 7 -20 15 0 8 -7 15 -15 15 -8 0 -15 9 -15
20 0 13 -7 20 -20 20 -11 0 -20 7 -20 15 0 8 -6 15 -12 15 -7 0 -24 12 -37 25
-13 14 -27 25 -33 25 -5 0 -31 23 -57 50 -26 28 -53 50 -60 50 -6 0 -11 6 -11
14 0 7 -9 16 -20 19 -11 3 -20 12 -20 21 0 9 -8 16 -20 16 -11 0 -20 6 -20 14
0 7 -9 16 -20 19 -11 3 -20 12 -20 21 0 11 -9 16 -30 16 -23 0 -30 4 -30 20 0
11 -6 20 -14 20 -8 0 -16 7 -20 15 -3 8 -12 15 -20 15 -7 0 -16 9 -19 20 -3
11 -12 20 -21 20 -9 0 -16 6 -16 14 0 7 -9 16 -20 19 -11 3 -20 12 -20 21 0 9
-7 16 -15 16 -9 0 -18 7 -21 15 -4 8 -18 15 -34 15 -16 0 -30 -7 -34 -15z"/>
<path d="M2513 3436 c-13 -13 -23 -29 -23 -35 0 -6 -9 -11 -20 -11 -11 0 -20
-6 -20 -14 0 -7 -9 -16 -20 -19 -11 -3 -20 -12 -20 -21 0 -9 -6 -16 -12 -16
-7 0 -24 -12 -37 -25 -13 -14 -29 -25 -37 -25 -8 0 -14 -7 -14 -15 0 -8 -9
-15 -20 -15 -11 0 -20 -7 -20 -15 0 -8 -6 -15 -14 -15 -7 0 -16 -9 -19 -20 -3
-11 -12 -20 -21 -20 -9 0 -16 -7 -16 -15 0 -8 -7 -15 -15 -15 -8 0 -19 -9 -25
-20 -6 -11 -17 -20 -25 -20 -8 0 -15 -7 -15 -15 0 -8 -6 -15 -12 -15 -7 0 -24
-12 -37 -25 -13 -14 -29 -25 -37 -25 -8 0 -14 -7 -14 -15 0 -8 -7 -15 -15 -15
-9 0 -18 -7 -21 -15 -4 -8 -12 -15 -20 -15 -8 0 -14 -9 -14 -20 0 -13 -7 -20
-20 -20 -11 0 -20 -6 -20 -14 0 -7 -9 -16 -20 -19 -11 -3 -20 -12 -20 -21 0
-9 -7 -16 -15 -16 -9 0 -18 -6 -21 -14 -3 -8 -19 -19 -35 -25 -16 -5 -29 -14
-29 -19 0 -5 -9 -12 -20 -15 -11 -3 -20 -12 -20 -21 0 -9 -7 -16 -15 -16 -8 0
-15 -6 -15 -14 0 -7 -9 -16 -20 -19 -11 -3 -20 -12 -20 -21 0 -9 -8 -16 -20
-16 -11 0 -20 -7 -20 -15 0 -8 -6 -15 -14 -15 -17 0 -26 -51 -26 -147 0 -42
-4 -73 -10 -73 -7 0 -10 -210 -10 -609 l0 -609 23 -6 c29 -8 1925 -8 1955 0
l22 6 0 609 c0 399 -3 609 -10 609 -6 0 -10 33 -10 79 0 97 -8 141 -26 141 -8
0 -14 7 -14 15 0 8 -9 15 -20 15 -11 0 -20 6 -20 13 0 15 -44 57 -59 57 -6 0
-11 7 -11 15 0 9 -8 19 -17 22 -9 4 -25 15 -35 25 -10 10 -25 18 -33 18 -8 0
-15 7 -15 15 0 8 -8 15 -19 15 -10 0 -21 9 -24 20 -3 11 -12 20 -21 20 -9 0
-16 7 -16 15 0 8 -9 15 -20 15 -13 0 -20 7 -20 20 0 11 -7 20 -15 20 -8 0 -15
7 -15 15 0 8 -9 15 -20 15 -11 0 -20 7 -20 15 0 8 -6 15 -13 15 -8 0 -24 11
-37 25 -13 14 -29 25 -37 25 -7 0 -13 7 -13 15 0 8 -7 15 -15 15 -8 0 -19 9
-25 20 -6 11 -17 20 -25 20 -8 0 -15 6 -15 14 0 7 -9 16 -20 19 -11 3 -20 12
-20 21 0 9 -7 16 -15 16 -8 0 -15 7 -15 15 0 8 -9 15 -20 15 -11 0 -20 7 -20
15 0 8 -6 15 -14 15 -8 0 -24 11 -37 25 -13 13 -29 25 -35 25 -7 0 -14 9 -17
20 -3 11 -12 20 -21 20 -9 0 -16 7 -16 15 0 8 -9 15 -20 15 -13 0 -20 7 -20
20 0 11 -6 20 -14 20 -8 0 -16 7 -20 15 -9 23 -58 18 -83 -9z m83 -681 c4 -8
12 -15 20 -15 8 0 14 -7 14 -15 0 -9 7 -18 15 -21 13 -5 15 -37 15 -200 0
-166 -2 -194 -15 -194 -8 0 -15 -6 -15 -14 0 -18 -22 -26 -70 -26 -48 0 -70 8
-70 26 0 8 -7 14 -15 14 -13 0 -15 28 -15 194 0 163 2 195 15 200 8 3 15 12
15 21 0 8 6 15 14 15 8 0 16 7 20 15 3 9 18 15 36 15 18 0 33 -6 36 -15z
m-286 -145 c0 -11 7 -20 15 -20 11 0 15 -12 15 -50 0 -38 -4 -50 -15 -50 -8 0
-15 -7 -15 -15 0 -8 -7 -15 -16 -15 -9 0 -18 -9 -21 -20 -3 -11 -10 -20 -17
-20 -14 0 -50 -39 -59 -62 -3 -10 -13 -18 -22 -18 -10 0 -15 -10 -15 -30 0
-18 -6 -33 -15 -36 -8 -3 -17 -26 -21 -52 -4 -26 -12 -50 -18 -54 -15 -10 -13
-167 2 -177 6 -3 14 -30 18 -59 4 -34 11 -52 20 -52 8 0 14 -9 14 -20 0 -11 7
-23 15 -26 8 -3 17 -16 21 -27 7 -24 49 -67 65 -67 5 0 9 -4 9 -10 0 -5 6 -10
14 -10 8 0 16 -7 20 -15 3 -8 12 -15 20 -15 7 0 16 -6 19 -14 3 -7 26 -16 53
-19 28 -3 51 -11 56 -21 13 -24 203 -24 216 0 5 10 28 18 56 21 27 3 50 12 53
19 3 8 10 14 17 14 6 0 22 12 35 25 13 14 29 25 36 25 7 0 15 7 19 15 3 8 12
15 21 15 8 0 15 9 15 20 0 11 9 28 20 37 11 10 20 25 20 35 0 10 6 18 14 18 9
0 16 18 20 52 4 29 12 56 18 59 15 10 17 167 2 177 -6 4 -14 28 -18 54 -4 26
-13 49 -21 52 -9 3 -15 18 -15 36 0 20 -5 30 -15 30 -9 0 -19 8 -22 18 -9 24
-46 62 -60 62 -7 0 -13 7 -13 16 0 9 -9 18 -20 21 -11 3 -20 12 -20 19 0 8 -7
14 -15 14 -11 0 -15 12 -15 50 0 38 4 50 15 50 8 0 15 9 15 20 0 18 7 20 70
20 57 0 70 -3 70 -16 0 -9 9 -18 20 -21 11 -3 20 -12 20 -19 0 -8 9 -14 20
-14 11 0 20 -7 20 -15 0 -9 7 -18 15 -21 8 -4 15 -12 15 -20 0 -8 7 -14 15
-14 8 0 15 -7 15 -15 0 -8 9 -20 20 -27 11 -7 20 -23 20 -35 0 -12 9 -27 20
-33 15 -8 20 -21 20 -55 0 -28 5 -47 14 -52 33 -18 32 -393 0 -393 -9 0 -14
-12 -14 -35 0 -24 -5 -35 -15 -35 -8 0 -17 -14 -21 -35 -3 -20 -12 -35 -20
-35 -8 0 -14 -6 -14 -13 0 -13 -29 -54 -62 -89 -10 -10 -18 -25 -18 -33 0 -9
-9 -15 -25 -15 -16 0 -25 -6 -25 -15 0 -9 -9 -15 -21 -15 -12 0 -23 -8 -26
-20 -4 -15 -14 -20 -39 -20 -22 0 -34 -5 -34 -14 0 -8 -15 -17 -35 -20 -19 -4
-35 -13 -35 -20 0 -17 -181 -28 -330 -19 -80 4 -110 10 -110 19 0 7 -16 16
-35 20 -20 3 -35 12 -35 20 0 9 -12 14 -34 14 -25 0 -35 5 -39 20 -3 12 -14
20 -25 20 -11 0 -22 7 -26 15 -3 8 -15 15 -26 15 -11 0 -20 7 -20 15 0 8 -8
23 -17 33 -34 35 -63 76 -63 89 0 7 -6 13 -14 13 -8 0 -17 15 -20 35 -4 21
-13 35 -21 35 -10 0 -15 11 -15 35 0 23 -5 35 -14 35 -32 0 -33 375 0 393 9 5
14 24 14 52 0 34 5 47 20 55 11 6 20 21 20 33 0 12 9 28 20 35 11 7 20 19 20
27 0 8 7 15 15 15 8 0 15 6 15 14 0 8 7 16 15 20 8 3 15 12 15 21 0 8 9 15 20
15 11 0 20 6 20 14 0 7 9 16 20 19 11 3 20 12 20 21 0 13 13 16 70 16 63 0 70
-2 70 -20z"/>
</g>
</svg>
